<svg width="56" height="56" viewBox="0 0 56 56" xmlns="http://www.w3.org/2000/svg" role="img" aria-label="Conversational AI icon">
  <title>Conversational AI</title>
  <desc>Chat bubble with a waveform, representing the responsive AI chatbot interface.</desc>

  <defs>
    <linearGradient id="convGrad" x1="0" y1="0" x2="1" y2="1">
      <stop offset="0%" stop-color="#2563EB"/>
      <stop offset="100%" stop-color="#8B5CF6"/>
    </linearGradient>
  </defs>

  <rect x="2" y="2" width="52" height="52" rx="14" fill="#F4EEFE"/>

  <path d="M14 18 a4 4 0 0 1 4 -4 h20 a4 4 0 0 1 4 4 v12 a4 4 0 0 1 -4 4 H24 l-6 6 v-6 h0 a4 4 0 0 1 -4 -4 Z"
        fill="none" stroke="url(#convGrad)" stroke-width="2" stroke-linejoin="round" stroke-linecap="round"/>

  <g stroke="#7C5CF0" stroke-width="1.8" stroke-linecap="round">
    <line x1="20" y1="24" x2="20" y2="20"/>
    <line x1="25" y1="24" x2="25" y2="16"/>
    <line x1="30" y1="24" x2="30" y2="20"/>
    <line x1="35" y1="24" x2="35" y2="18"/>
  </g>
</svg>
